<svg xmlns="http://www.w3.org/2000/svg" xmlns:xlink="http://www.w3.org/1999/xlink" width="500" zoomAndPan="magnify" viewBox="0 0 375 374.999991" height="500" preserveAspectRatio="xMidYMid meet" version="1.0"><defs><clipPath id="0f40d69b3c"><path d="M 122 92.050781 L 253 92.050781 L 253 224.800781 L 122 224.800781 Z M 122 92.050781 " clip-rule="nonzero"/></clipPath></defs><rect x="-37.5" width="450" fill="#ffffff" y="-37.499999" height="449.999989" fill-opacity="1"/><rect x="-37.5" width="450" fill="#000000" y="-37.499999" height="449.999989" fill-opacity="1"/><g clip-path="url(#0f40d69b3c)"><path fill="#ffffff" d="M 247.988281 219.296875 C 247.402344 220.148438 246.472656 220.636719 245.433594 220.636719 L 221.792969 220.636719 C 220.507812 220.636719 219.34375 219.832031 218.894531 218.632812 L 212.878906 202.550781 C 212.859375 202.5 212.835938 202.449219 212.816406 202.398438 C 211.71875 199.664062 209.03125 197.839844 206.066406 197.839844 L 168.113281 197.839844 C 165.074219 197.839844 162.332031 199.75 161.289062 202.597656 L 155.410156 218.613281 C 154.964844 219.824219 153.796875 220.636719 152.503906 220.636719 L 129.554688 220.636719 C 128.515625 220.636719 127.585938 220.148438 127 219.296875 C 126.414062 218.441406 126.292969 217.398438 126.667969 216.433594 L 155.644531 141.738281 C 156.371094 139.867188 158.085938 139.757812 158.597656 139.765625 C 159.105469 139.777344 160.816406 139.960938 161.460938 141.863281 L 165.683594 154.277344 L 170.871094 169.539062 C 171.871094 172.484375 174.636719 174.464844 177.753906 174.464844 L 192.9375 174.464844 C 195.300781 174.464844 197.523438 173.3125 198.882812 171.386719 C 200.242188 169.457031 200.578125 166.984375 199.78125 164.765625 L 189.214844 135.378906 C 189.171875 135.253906 189.117188 135.136719 189.054688 135.027344 L 176.558594 100.347656 C 176.214844 99.390625 176.351562 98.363281 176.941406 97.527344 C 177.527344 96.695312 178.449219 96.21875 179.472656 96.21875 L 199.589844 96.21875 C 200.859375 96.21875 202.019531 97.007812 202.476562 98.191406 L 203.476562 100.773438 L 248.320312 216.4375 C 248.695312 217.398438 248.574219 218.445312 247.988281 219.296875 Z M 252.210938 214.933594 L 207.953125 100.773438 L 206.367188 96.6875 C 205.835938 95.320312 204.914062 94.152344 203.699219 93.324219 C 202.484375 92.492188 201.0625 92.054688 199.589844 92.054688 L 179.472656 92.054688 C 177.109375 92.054688 174.886719 93.207031 173.527344 95.132812 C 172.167969 97.0625 171.832031 99.539062 172.632812 101.757812 L 185.273438 136.835938 C 185.316406 136.957031 185.371094 137.074219 185.433594 137.183594 L 195.855469 166.167969 C 196.199219 167.128906 196.058594 168.15625 195.472656 168.988281 C 194.882812 169.824219 193.960938 170.300781 192.9375 170.300781 L 177.753906 170.300781 C 176.425781 170.300781 175.25 169.457031 174.820312 168.207031 L 168.03125 148.226562 L 165.414062 140.527344 C 164.421875 137.601562 161.777344 135.671875 158.683594 135.605469 C 155.59375 135.539062 152.871094 137.359375 151.753906 140.234375 L 122.777344 214.933594 C 121.910156 217.164062 122.203125 219.675781 123.558594 221.648438 C 124.914062 223.621094 127.15625 224.800781 129.554688 224.800781 L 152.503906 224.800781 C 155.542969 224.800781 158.285156 222.890625 159.328125 220.042969 L 165.207031 204.027344 C 165.652344 202.8125 166.820312 202 168.113281 202 L 206.066406 202 C 206.609375 202 207.125 202.140625 207.578125 202.398438 C 208.203125 202.746094 208.707031 203.3125 208.96875 204.007812 L 214.984375 220.085938 C 216.039062 222.90625 218.777344 224.800781 221.792969 224.800781 L 245.433594 224.800781 C 247.832031 224.800781 250.070312 223.621094 251.429688 221.648438 C 252.785156 219.675781 253.078125 217.164062 252.210938 214.933594 " fill-opacity="1" fill-rule="nonzero"/></g><path stroke-linecap="butt" transform="matrix(0.75, 0, 0, 0.75, 51.583254, 233.869043)" fill="none" stroke-linejoin="miter" d="M 68.691083 53.278779 L 67.982749 53.065238 L 68.144208 52.195446 L 69.571291 49.018362 L 70.050458 48.205862 L 72.243166 42.945445 L 72.73275 42.028779 L 73.284833 41.200654 L 73.618166 40.049612 L 74.165041 39.075654 L 74.534833 38.091278 L 75.5765 36.237112 L 75.967125 35.143362 L 77.430667 32.070445 L 77.821292 30.976695 L 78.805667 29.174611 L 79.180667 27.919403 L 79.727542 27.039194 L 80.60775 24.971486 L 81.206708 23.877736 L 81.972333 23.877736 L 82.623375 24.971486 L 87.159834 34.476695 L 87.706709 36.060028 L 92.790043 47.216279 L 93.831709 49.018362 L 95.086918 52.127738 L 95.316084 53.169404 L 94.659834 53.117321 L 93.889001 52.195446 L 92.633793 49.622529 L 91.644209 48.752737 L 90.446292 48.205862 L 89.347334 48.033987 L 83.342125 48.367321 L 77.217125 48.086071 L 76.071291 48.138154 L 75.081708 48.310029 L 73.014 48.205862 L 71.638999 48.580862 L 70.722333 49.513154 Z M 76.67025 47.112112 L 89.842126 47.112112 L 90.670251 46.617321 L 90.722334 45.523571 L 82.743167 28.190236 L 82.409834 27.216278 L 81.649417 26.773569 L 80.873375 27.320444 L 77.217125 35.408987 L 76.727541 36.169403 L 72.415041 45.575654 L 72.628583 46.513154 L 73.441083 46.992321 L 74.534833 46.940237 Z M 111.159835 53.278779 L 110.451502 53.065238 L 110.61296 52.195446 L 112.040044 49.018362 L 112.519211 48.205862 L 114.711919 42.945445 L 115.201502 42.028779 L 115.748377 41.200654 L 116.086919 40.049612 L 116.633794 39.075654 L 117.003586 38.091278 L 118.045253 36.237112 L 118.430669 35.143362 L 119.899419 32.070445 L 120.290044 30.976695 L 121.274419 29.174611 L 121.649419 27.919403 L 122.196294 27.039194 L 123.076503 24.971486 L 123.675461 23.877736 L 124.435878 23.877736 L 125.092128 24.971486 L 129.628587 34.476695 L 130.175462 36.060028 L 135.258795 47.216279 L 136.300462 49.018362 L 137.55567 52.127738 L 137.784837 53.169404 L 137.128587 53.117321 L 136.357754 52.195446 L 135.102545 49.622529 L 134.112962 48.752737 L 132.909837 48.205862 L 131.816087 48.033987 L 125.810878 48.367321 L 119.685878 48.086071 L 118.540044 48.138154 L 117.550461 48.310029 L 115.482752 48.205862 L 114.107752 48.580862 L 113.191086 49.513154 Z M 119.139003 47.112112 L 132.310878 47.112112 L 133.139004 46.617321 L 133.191087 45.523571 L 125.21192 28.190236 L 124.878586 27.216278 L 124.11817 26.773569 L 123.342128 27.320444 L 119.685878 35.408987 L 119.196294 36.169403 L 114.883794 45.575654 L 115.097336 46.513154 L 115.909836 46.992321 L 117.003586 46.940237 Z M 165.878589 53.768363 L 161.607755 53.716279 L 159.649422 53.221488 L 157.514005 52.304821 L 156.633797 51.757946 L 155.269213 50.554821 L 154.670255 49.565238 L 154.441088 48.752737 L 155.165047 48.752737 L 155.977547 49.622529 L 156.805672 50.325654 L 158.550464 51.528779 L 159.52963 51.810029 L 160.566089 52.304821 L 164.290047 52.622529 L 166.092131 52.570446 L 169.253589 51.757946 L 170.404631 51.205863 L 172.326506 50.060029 L 172.977548 48.966279 L 173.581715 48.205862 L 173.967131 47.164196 L 174.12859 45.414196 L 174.071298 43.830862 L 173.685881 42.789195 L 172.540048 41.252737 L 170.628589 39.997529 L 169.748381 39.560029 L 166.477547 38.955862 L 165.493172 38.955862 L 161.659839 38.58607 L 159.045255 38.039195 L 156.206713 36.606903 L 155.321297 35.846487 L 154.618172 35.143362 L 154.175463 34.315237 L 153.737963 33.164195 L 153.46713 30.42982 L 153.46713 29.018361 L 154.774422 25.841278 L 156.68588 24.143361 L 160.076505 22.341277 L 162.211922 22.023569 L 165.441089 21.903777 L 167.628589 22.341277 L 168.550464 22.836069 L 170.628589 23.653777 L 171.498381 24.424611 L 172.326506 24.971486 L 172.977548 25.893361 L 173.191089 26.825653 L 172.378589 26.935028 L 170.628589 25.185028 L 169.748381 24.586069 L 168.602548 24.039194 L 165.597339 23.106902 L 161.170255 23.382944 L 160.019214 23.716278 L 157.180672 25.237111 L 155.65463 26.773569 L 155.107755 27.705861 L 154.670255 28.789195 L 154.722338 32.299611 L 154.987963 33.27357 L 156.206713 35.02357 L 157.019213 35.690237 L 158.165047 36.169403 L 160.128589 36.888153 L 161.34213 37.101695 L 162.316089 37.382945 L 167.894214 38.039195 L 171.232756 38.851695 L 172.217131 39.450654 L 173.790048 40.935029 L 174.461923 41.638154 L 175.22234 43.669404 L 175.274423 47.112112 L 174.461923 49.075654 L 173.737965 50.169404 L 173.029631 50.929821 L 171.232756 52.247529 L 170.243173 52.622529 L 167.024422 53.664196 Z M 193.248382 53.221488 L 192.982757 52.127738 L 192.873382 50.820446 L 193.034841 49.726696 L 192.930674 48.804821 L 192.982757 45.362112 L 192.873382 44.320446 L 193.034841 43.283987 L 193.034841 39.612112 L 192.930674 37.919403 L 192.982757 36.945445 L 192.821299 34.596487 L 192.982757 33.445445 L 192.982757 23.716278 L 193.316091 22.679819 L 193.795258 22.731902 L 194.180674 23.825653 L 194.128591 34.966278 L 194.732758 36.237112 L 195.769216 36.502737 L 196.862966 36.664195 L 198.935883 36.55482 L 202.217133 36.664195 L 203.857758 36.450653 L 210.972342 36.664195 L 212.493175 36.502737 L 214.185884 36.11732 L 214.842134 34.914195 L 214.680676 29.231903 L 214.790051 28.257944 L 214.732759 23.716278 L 215.014009 22.679819 L 215.560884 22.679819 L 215.935884 23.773569 L 215.987967 42.841279 L 215.883801 43.830862 L 215.883801 44.976696 L 215.987967 46.018362 L 215.987967 52.023571 L 215.612967 53.117321 L 215.014009 53.065238 L 214.680676 51.049613 L 214.628592 39.893362 L 214.185884 38.356903 L 213.144217 37.810028 L 211.998384 37.705862 L 208.784842 37.705862 L 207.581717 37.810028 L 206.54005 37.810028 L 205.550467 37.705862 L 204.456717 37.705862 L 203.420258 37.862112 L 201.670258 37.757945 L 200.201508 37.862112 L 199.055675 37.705862 L 197.467133 37.862112 L 196.373383 37.757945 L 194.732758 38.408987 L 194.180674 39.346487 L 194.076508 40.49232 L 194.076508 42.575654 L 194.237966 43.601695 L 194.024424 48.862112 L 194.128591 49.836071 L 194.076508 50.929821 L 194.128591 51.971488 L 193.967133 53.065238 Z M 243.211927 53.450654 L 235.883802 53.278779 L 234.790052 53.398571 L 233.696302 52.955863 L 233.816093 52.408988 L 237.310885 52.127738 L 238.566094 51.648571 L 239.112969 50.606904 L 238.956719 49.461071 L 239.112969 47.216279 L 238.956719 45.028779 L 239.17026 40.226695 L 239.008802 38.466278 L 239.112969 32.950653 L 238.956719 31.966278 L 239.060885 30.815236 L 239.060885 27.643361 L 239.17026 26.612111 L 239.008802 25.346486 L 238.566094 24.372528 L 237.472344 23.716278 L 235.336927 23.716278 L 234.243177 23.382944 L 234.352552 22.783986 L 236.487969 22.450652 L 240.581719 22.341277 L 241.795261 22.570444 L 243.920261 22.570444 L 244.852553 22.731902 L 244.961928 23.382944 L 243.862969 23.773569 L 242.878594 23.653777 L 241.795261 23.773569 L 240.701511 24.320444 L 240.316094 25.414194 L 240.206719 26.560028 L 240.264011 27.429819 L 240.206719 29.721486 L 240.316094 30.763153 L 240.316094 38.143362 L 240.206719 39.67982 L 240.206719 40.653779 L 240.316094 41.747529 L 240.264011 50.112113 L 240.810886 51.700654 L 241.852552 52.304821 L 243.102552 52.356904 L 244.253594 52.195446 L 245.399428 52.408988 L 245.347344 52.955863 L 244.357761 53.221488 Z M 263.48797 53.117321 L 263.274429 51.971488 L 263.165054 48.752737 L 263.326512 47.539196 L 263.165054 44.268362 L 263.326512 43.122529 L 263.222345 39.841279 L 263.326512 37.544403 L 263.222345 35.299612 L 263.274429 34.205862 L 263.222345 28.627736 L 263.378595 27.586069 L 264.086929 27.372528 L 266.665054 29.721486 L 267.264012 30.658986 L 268.852554 32.018361 L 270.373388 33.820445 L 275.790055 39.185029 L 276.394221 40.106904 L 277.592138 40.330862 L 278.737971 39.997529 L 285.628597 32.89857 L 286.227555 32.127736 L 288.68068 29.882945 L 290.107764 28.080861 L 290.925472 27.320444 L 291.857764 27.429819 L 292.019222 28.737111 L 291.909847 30.763153 L 292.071306 31.856903 L 291.967139 52.075654 L 291.696306 53.065238 L 291.097347 53.065238 L 290.711931 51.971488 L 290.764014 50.325654 L 290.711931 48.685029 L 290.816097 46.940237 L 290.816097 44.148571 L 290.654639 43.122529 L 290.816097 30.924611 L 290.430681 30.112111 L 289.670264 30.377736 L 282.946305 37.263153 L 281.972347 38.58607 L 281.034847 39.346487 L 280.222347 40.226695 L 279.446305 40.877737 L 278.737971 41.919404 L 277.592138 42.294404 L 276.446305 41.799612 L 273.441096 38.58607 L 272.560888 37.810028 L 269.503596 34.419403 L 268.623387 33.71107 L 265.675471 30.42982 L 264.915054 30.164195 L 264.472345 30.976695 L 264.368179 31.966278 L 264.529637 33.060028 L 264.368179 34.700653 L 264.529637 39.841279 L 264.316095 42.028779 L 264.529637 49.726696 L 264.368179 50.716279 L 264.472345 51.971488 L 264.196304 53.117321 Z M 263.48797 53.117321 " stroke="#ffffff" stroke-width="2.391659" stroke-opacity="1" stroke-miterlimit="4"/></svg>