<svg width="45" height="34" viewBox="0 0 45 34" fill="none" xmlns="http://www.w3.org/2000/svg">
<g id="Vector">
<path d="M12.7222 0.192139H7.83333C3.78957 0.192139 0.5 3.43147 0.5 7.41347V12.2277C0.5 16.2097 3.78957 19.449 7.83333 19.449H12.7222C13.5071 19.449 14.2492 19.2951 14.9587 19.069C13.9731 24.7384 8.98075 29.0774 2.94444 29.0774C1.59332 29.0774 0.5 30.1541 0.5 31.4846C0.5 32.815 1.59332 33.8917 2.94444 33.8917C12.3785 33.8917 20.0556 26.3319 20.0556 17.0419V7.41347C20.0556 3.43147 16.766 0.192139 12.7222 0.192139ZM37.1667 0.192139H32.2778C28.234 0.192139 24.9444 3.43147 24.9444 7.41347V12.2277C24.9444 16.2097 28.234 19.449 32.2778 19.449H37.1667C37.9515 19.449 38.6936 19.2951 39.4032 19.069C38.4176 24.7384 33.4252 29.0774 27.3889 29.0774C26.0378 29.0774 24.9444 30.1541 24.9444 31.4846C24.9444 32.815 26.0378 33.8917 27.3889 33.8917C36.823 33.8917 44.5 26.3319 44.5 17.0419V7.41347C44.5 3.43147 41.2104 0.192139 37.1667 0.192139Z" fill="#20B486"/>
<path d="M15.4513 19.1546L15.5926 18.3422L14.8069 18.5926C14.1305 18.8082 13.4411 18.949 12.7222 18.949H7.83333C4.05843 18.949 1 15.9263 1 12.2277V7.41347C1 3.71484 4.05843 0.692139 7.83333 0.692139H12.7222C16.4971 0.692139 19.5556 3.71484 19.5556 7.41347V17.0419C19.5556 26.0485 12.1097 33.3917 2.94444 33.3917C1.86218 33.3917 1 32.5317 1 31.4846C1 30.4374 1.86218 29.5774 2.94444 29.5774C9.22512 29.5774 14.4243 25.0623 15.4513 19.1546ZM39.8958 19.1546L40.037 18.3422L39.2514 18.5926C38.5749 18.8082 37.8855 18.949 37.1667 18.949H32.2778C28.5029 18.949 25.4444 15.9263 25.4444 12.2277V7.41347C25.4444 3.71484 28.5029 0.692139 32.2778 0.692139H37.1667C40.9416 0.692139 44 3.71484 44 7.41347V17.0419C44 26.0485 36.5541 33.3917 27.3889 33.3917C26.3066 33.3917 25.4444 32.5317 25.4444 31.4846C25.4444 30.4374 26.3066 29.5774 27.3889 29.5774C33.6696 29.5774 38.8688 25.0623 39.8958 19.1546Z" stroke="black" stroke-opacity="0.1"/>
</g>
</svg>
